<svg xmlns="http://www.w3.org/2000/svg" xmlns:xlink="http://www.w3.org/1999/xlink" width="679.714" height="781.438" viewBox="0 0 679.714 781.438">
  <defs>
    <filter id="Path_78" x="7.575" y="119.66" width="189.043" height="200.198" filterUnits="userSpaceOnUse">
      <feOffset dy="17" input="SourceAlpha"/>
      <feGaussianBlur stdDeviation="9" result="blur"/>
      <feFlood flood-color="#486398" flood-opacity="0.11"/>
      <feComposite operator="in" in2="blur"/>
      <feComposite in="SourceGraphic"/>
    </filter>
    <filter id="Path_79" x="147.647" y="0" width="213.428" height="171.544" filterUnits="userSpaceOnUse">
      <feOffset dy="17" input="SourceAlpha"/>
      <feGaussianBlur stdDeviation="9" result="blur-2"/>
      <feFlood flood-color="#486398" flood-opacity="0.11"/>
      <feComposite operator="in" in2="blur-2"/>
      <feComposite in="SourceGraphic"/>
    </filter>
    <filter id="Rectangle_8" x="411.646" y="144.844" width="236.5" height="166.5" filterUnits="userSpaceOnUse">
      <feOffset dy="17" input="SourceAlpha"/>
      <feGaussianBlur stdDeviation="9" result="blur-3"/>
      <feFlood flood-color="#486398" flood-opacity="0.11"/>
      <feComposite operator="in" in2="blur-3"/>
      <feComposite in="SourceGraphic"/>
    </filter>
  </defs>
  <g id="Group_2" data-name="Group 2" transform="translate(-460.793 -103.406)">
    <path id="Path_1" data-name="Path 1" d="M751.69,859.553a137.5,137.5,0,0,1,16.154-9.941c29.076-14.94,56.3-30.278,79.012-53.812,26.9-27.879,45.752-65.53,45.756-105.031s-21.265-79.981-56.264-96.358c-43.557-20.391-93.384-1-140.777,3.885-61.1,6.3-121.84-12.3-182.13-25.137s-125.816-19.376-180.589,8.893c-44.087,22.781-76.551,67.82-85.038,118.012s7.211,104.332,41.117,141.812c48.912,54.077,125.853,68.64,197.2,72.07a950.631,950.631,0,0,0,157.523-5.459c23.551-2.787,45.594-7.58,66.4-19.293C725.024,880.772,737.8,869.3,751.69,859.553Z" transform="translate(246.595 -239.975)" fill="none" stroke="#b8c6d9" stroke-miterlimit="10" stroke-width="2.6" opacity="0.56"/>
    <path id="Path_2" data-name="Path 2" d="M429.025,859.49c-36.727-4.345-73.685-13.221-106.133-32.647s-60.149-50.49-70.96-88.472-2.266-82.756,25.539-108.084c34.618-31.52,85.908-26.508,130.985-34.792,58.112-10.653,109.082-45.147,161.213-73.988s110.814-53.025,169.1-40.819c46.924,9.829,89.2,44.265,110.76,90.208s21.882,102.306.828,147.6C820,783.87,752.975,818.919,688.079,841.75a880.762,880.762,0,0,1-146.873,37.837c-18.336,3.065-37.05,5.55-55.5,2.647s-36.913-11.829-48.341-27.809Z" transform="translate(245.509 -190.341)" fill="#f1f4f8"/>
    <ellipse id="Ellipse_7" data-name="Ellipse 7" cx="47.569" cy="9.058" rx="47.569" ry="9.058" transform="translate(460.793 790.026)" fill="#1f3c88" opacity="0.15"/>
    <path id="Path_21" data-name="Path 21" d="M178.067,1590.159c-10.29,0-21.747-15.067-21.747-25.277a18.451,18.451,0,1,1,36.894,0C193.214,1574.657,189.1,1590.159,178.067,1590.159Zm-3.3-37.84a12.388,12.388,0,0,0-12.183,12.563c0,7.641,9.264,19.028,15.488,19.028,5.723,0,8.883-11.246,8.883-19.028A12.392,12.392,0,0,0,174.762,1552.319Z" transform="translate(308.474 -808.706)" fill="#1f3c88"/>
    <path id="Path_22" data-name="Path 22" d="M229.635,1591.435H202.551a8.647,8.647,0,0,1-8.618-7.931l-5.6-67.5h56.648l-6.74,67.644A8.647,8.647,0,0,1,229.635,1591.435Z" transform="translate(292.492 -793.698)" fill="#1f3c88"/>
    <path id="Path_23" data-name="Path 23" d="M195.41,1353.656a42.309,42.309,0,0,0-1.667,19.178,41.481,41.481,0,0,0,2.664,9.128,52.922,52.922,0,0,0,4.662,8.387,70.8,70.8,0,0,0,6.074,7.606c.531.576,1.107,1.287,1.687,2s1.172,1.367,1.7,2.1l1.5,2.313a19.476,19.476,0,0,1,1.242,2.5,14.52,14.52,0,0,1,.936,2.669,13.452,13.452,0,0,1,.5,2.849,5.91,5.91,0,0,1,0,1.457l-.1,1.457c-.07.5-.2.951-.305,1.427a7.014,7.014,0,0,1-.411,1.387l-.546,1.327c-.225.421-.466.826-.7,1.232a8.436,8.436,0,0,1-.786,1.162,9.556,9.556,0,0,1-.876,1.077,16.255,16.255,0,0,1-4.251,3.43l-1.042-1.657a15.144,15.144,0,0,0,4.857-7.611,4.507,4.507,0,0,0,.2-1.062c.035-.36.11-.711.12-1.067l-.045-1.077a3.664,3.664,0,0,0-.125-1.062,10.013,10.013,0,0,0-.531-2.1,10.694,10.694,0,0,0-.866-2,21.365,21.365,0,0,0-1.137-1.958l-1.342-1.878c-.5-.606-1.052-1.172-1.567-1.763l-1.662-1.808c-1.187-1.277-2.373-2.554-3.46-3.931a52.3,52.3,0,0,1-3.17-4.211,50.31,50.31,0,0,1-4.967-9.384,39.781,39.781,0,0,1-2.474-10.4,37.1,37.1,0,0,1,4.1-20.455Z" transform="translate(291.981 -712.282)" fill="#d3dfff"/>
    <path id="Path_24" data-name="Path 24" d="M249.177,1350.52A23.389,23.389,0,0,1,256.868,1362a25.539,25.539,0,0,1,1,7.06,32.441,32.441,0,0,1-.821,7.01,41.387,41.387,0,0,1-2.188,6.58l-.591,1.452c-.175.456-.391.906-.541,1.362l-.335,1.347c-.14.461-.155.9-.255,1.347a7.009,7.009,0,0,0-.09,1.317,6.231,6.231,0,0,0,.11,1.272,7.374,7.374,0,0,0,.3,1.222,8.514,8.514,0,0,0,.576,1.127,9.323,9.323,0,0,0,4.286,3.505l-.386,1.918a10.486,10.486,0,0,1-6.655-3.275,12.089,12.089,0,0,1-1.192-1.623,11.926,11.926,0,0,1-.811-1.858,9.383,9.383,0,0,1-.426-1.958,10.3,10.3,0,0,1-.1-1.953,13.238,13.238,0,0,1,.155-1.9l.371-1.823c.155-.6.366-1.152.546-1.732s.376-1.172.556-1.622a47.623,47.623,0,0,0,1.858-5.884,35.362,35.362,0,0,0,.891-5.969,27.429,27.429,0,0,0-.391-5.939,28.611,28.611,0,0,0-4.967-11.161Z" transform="translate(262.816 -711.079)" fill="#d3dfff"/>
    <path id="Path_34" data-name="Path 34" d="M912.432,1649.246c0-11.737-104.583-21.256-233.6-21.256s-233.6,9.514-233.6,21.256c0,9.514,68.805,17.586,163.644,20.29,10.33,16.945-6.91,37.209-20.124,44.52-23.2,1.157-39.853,3.74-37.229,9.243,12.4,26.038,117.777-1.667,117.777-1.667s41.205,2.564,41.205-1.357c0-1.8-7.256-3.45-19.193-4.7l.881-.05-44.485-45.206q15.277.19,31.125.19C807.849,1670.507,912.432,1660.988,912.432,1649.246Z" transform="translate(146.9 -849.611)" fill="#1f3c88" opacity="0.15"/>
    <path id="Path_35" data-name="Path 35" d="M909.07,1230.252c-3.08,50.809-28.692,101.583-70.678,129.524-50.048,33.314-120.025,25.943-177.018,30.184-49.272,3.67-98.919,6.82-148.216,1.577-40.384-4.306-81.118-20.3-100.407-59.512-19.328-39.3-21.421-91.509-2.093-131.282a127.552,127.552,0,0,1,24.11-33.809c1.577-1.617,3.22-3.195,4.882-4.732q1.692-1.562,3.43-3.064c1.778-1.542,3.605-3.044,5.458-4.507.616-.5,1.227-.951,1.853-1.422s1.242-.941,1.868-1.407,1.252-.926,1.888-1.377l1.427-1q1.187-.851,2.4-1.653a167.755,167.755,0,0,1,22.608-12.794,179.769,179.769,0,0,1,23.334-9.078c25.928-8.047,53-10.9,79.756-14.416,56.768-7.451,114.567-10.015,171.786-9.954,46.693,0,99.27,7.01,130.49,47.069C903.587,1171.226,910.832,1201.31,909.07,1230.252Z" transform="translate(170.897 -586.765)" fill="#a6b7be"/>
    <path id="Path_36" data-name="Path 36" d="M1226.929,1164.59s12.017-11.311,18.427-17.861-7.546-6.76-14.406,1.4S1226.929,1164.59,1226.929,1164.59Z" transform="translate(-243.088 -606.923)" fill="#f9b384"/>
    <path id="Path_37" data-name="Path 37" d="M518.1,1168.3a167.751,167.751,0,0,0-22.608,12.794q-1.217.806-2.4,1.652l-1.427,1c-.636.451-1.262.916-1.888,1.377s-1.252.926-1.868,1.407-1.237.946-1.853,1.422c-1.828,1.457-3.615,2.944-5.383,4.471l-.075.04q-1.743,1.5-3.43,3.064c-1.662,1.537-3.3,3.115-4.882,4.732a3.19,3.19,0,0,0,2.424,2.894c9.394,1.9,14.1,10.866,21.672,15.963A20.8,20.8,0,0,0,515,1221.768c-6.845,14.521-10.621,28.887-7.666,45.116a57.8,57.8,0,0,0,4.587,14.2c-8.8-6.51-17.275-20.53-20.76-34.731a3.756,3.756,0,1,0-7.3,1.793c4.316,17.576,15.3,34.465,26.719,41.06a24.475,24.475,0,0,0,8.207,3,57.487,57.487,0,0,0,7.561,8.012l16.875,4.717,13.77-88.88Z" transform="translate(133.395 -620.102)" fill="#7b888e"/>
    <path id="Path_38" data-name="Path 38" d="M576.262,1069.957c-34.891-13.59-59.111-28.041-73.177-37.66a28.271,28.271,0,0,1-11.857-28.121L509.219,899.3A32.362,32.362,0,0,1,528.3,875.018a319.846,319.846,0,0,1,81.784-22.878,196.628,196.628,0,0,1,31.606.626c11.662,1.152,38.351,9.013,55.316,14.286a32.863,32.863,0,0,1,20.911,19.528c7.115,18.337,18.672,49.3,22.358,66.031,12.729,57.794,10.641,53.518,10.641,53.518l13.144,88.88-139.579,7.821L588.8,1086.557Z" transform="translate(124.141 -462.072)" fill="#708cd5"/>
    <path id="Path_39" data-name="Path 39" d="M757.6,636.371s-12.363-25.347-45.221-13.77c-23.785-5.162-41.936,23-24.411,61.34l33.013,7.671Z" transform="translate(29.197 -346.139)" fill="#102048"/>
    <path id="Path_40" data-name="Path 40" d="M754.35,796.25v44.84a19.028,19.028,0,0,1-19.028,19.028,25.756,25.756,0,0,1-25.753-25.747V796.25Z" transform="translate(14.923 -434.349)" fill="#f9b384"/>
    <path id="Path_41" data-name="Path 41" d="M765.923,832.177v24.461c-19.944.1-33.173-25.687-33.173-25.687Z" transform="translate(3.35 -451.673)" fill="#e28b6d"/>
    <path id="Path_42" data-name="Path 42" d="M770.634,725.407a86.713,86.713,0,0,1-5.383,18.162c-4.306,9.824-10.881,17.31-20.921,17.526-23.494.5-41.621-31.611-41.621-31.611l3.755-43.814L724.3,665.64l49.157,30.349A166.24,166.24,0,0,1,770.634,725.407Z" transform="translate(18.348 -369.139)" fill="#f9b384"/>
    <path id="Path_43" data-name="Path 43" d="M702.719,707.278s4.847-19.719,21.747-32.548c0,0,24.571,32.077,50.544,16.584s14.711-46-9.544-41.31L737.61,646.88l-34.891,11.106-5.949,27.385Z" transform="translate(21.314 -359.773)" fill="#102048"/>
    <path id="Path_44" data-name="Path 44" d="M674.732,1111.026c-23.67-51.145-53.508-26.734-60.809-45.511-10.235-26.313-8.292-56.082-8.347-65.095l-14.256,80.272s31.831,3,43.6,22.192Z" transform="translate(73.962 -536.284)" fill="#1f3c88" opacity="0.4"/>
    <path id="Path_45" data-name="Path 45" d="M605.8,997.49c-.886,6.87-1.933,13.71-3,20.53s-2.288,13.645-3.42,20.47-2.439,13.615-3.776,20.4l-2.038,10.175c-.736,3.385-1.422,6.775-2.218,10.145l-1.032-.18c.411-3.44.931-6.86,1.4-10.29l1.577-10.26q1.612-10.245,3.46-20.46c1.277-6.8,2.454-13.615,3.811-20.4s2.694-13.57,4.216-20.325Z" transform="translate(74.466 -534.727)" fill="#1f3c88"/>
    <path id="Path_46" data-name="Path 46" d="M896.446,972.33c1.893,8.918,3.645,17.861,5.358,26.814s3.315,17.921,4.977,26.884,3.145,17.951,4.657,26.939l2.183,13.52c.676,4.507,1.4,9.013,2,13.52l-.961.17c-1-4.451-1.853-8.923-2.779-13.39l-2.614-13.42q-2.529-13.43-4.942-26.889c-1.537-8.983-3.165-17.946-4.622-26.944s-2.934-17.991-4.236-27.014Z" transform="translate(-77.891 -522.26)" fill="#1f3c88"/>
    <path id="Path_47" data-name="Path 47" d="M870.688,1055c1.667,16.274-.836,100.562-40.058,101.814l.416,18.362,61.755-3.755Z" transform="translate(-45.518 -563.535)" fill="#1f3c88" opacity="0.4"/>
    <path id="Path_48" data-name="Path 48" d="M747.084,1242.458c27.856-11.892,33.178-11.452,36.929-11.266,12.834.626,31.3,26.288,31.3,26.288l-.31,4.692H744.58Z" transform="translate(-2.556 -651.473)" fill="#e28b6d"/>
    <rect id="Rectangle_4" data-name="Rectangle 4" width="86.687" height="13.144" transform="translate(764.977 606.113)" fill="#fff"/>
    <path id="Path_49" data-name="Path 49" d="M1048.765,874.281H898.13l33.8-134.611h150.635Z" transform="translate(-79.219 -255.015)" fill="#fbc343"/>
    <path id="Path_50" data-name="Path 50" d="M1062,1198.292c-14.9-2.228-63.092-12.243-162.407,48.265l-2.3,8.342,151.055-1.552Z" transform="translate(-78.8 -634.08)" fill="#c89b35"/>
    <path id="Path_51" data-name="Path 51" d="M1205.329,1259.486c-.941,6.339-1.252,15.648-20.891,14.476l-5.788-2.974,5.473-6.009,11.817-6.009Z" transform="translate(-219.274 -665.371)" fill="#f9b384"/>
    <path id="Path_52" data-name="Path 52" d="M1212.639,1225.83s10.746,14.02-.055,18.362a62.093,62.093,0,0,1-23,4.226c5.007-14.086,21.281-13.144,21.281-13.144Z" transform="translate(-224.731 -648.825)" fill="#f9b384"/>
    <path id="Path_53" data-name="Path 53" d="M1211.87,1207.71s14.812,13.77,1.042,17.631c-19.443,5.448-25.452,5.839-25.452,5.839-1.042-10.325,18.257-17.025,18.257-17.025Z" transform="translate(-223.652 -639.778)" fill="#f9b384"/>
    <path id="Path_54" data-name="Path 54" d="M1208.014,1183.75s20.24,12.308,1.252,19.193-23.474,6.78-23.474,6.78c-1.042-10.325,19.3-13.87,19.3-13.87Z" transform="translate(-222.82 -627.815)" fill="#f9b384"/>
    <path id="Path_55" data-name="Path 55" d="M1185.83,1227.2s22.067-3.125,28.637-8.447" transform="translate(-222.859 -645.29)" fill="none" stroke="#e28b6d" stroke-miterlimit="10" stroke-width="2.5"/>
    <path id="Path_56" data-name="Path 56" d="M1187.5,1246.362s22.948-3.235,30.149-8.242" transform="translate(-223.693 -654.961)" fill="none" stroke="#e28b6d" stroke-miterlimit="10" stroke-width="2.5"/>
    <path id="Path_57" data-name="Path 57" d="M1189.58,1267.665s13.615.471,21.281-3.285" transform="translate(-224.731 -668.071)" fill="none" stroke="#e28b6d" stroke-miterlimit="10" stroke-width="2.5"/>
    <path id="Path_58" data-name="Path 58" d="M762.71,1627.141c2.293-1.252,38.6,6.675,78.865-23.159l-51.951-14.812Z" transform="translate(-11.608 -830.229)" fill="#102048"/>
    <path id="Path_59" data-name="Path 59" d="M997.336,1311.761c1.728-2.464,3.22-6.094,1.042-8.172-2.268-2.178-5.974-.265-8.352,1.788a100.989,100.989,0,0,0-11.517,11.767l-87.7,16.3L770.63,1362.65l20.665,26.374c60.088,4.381,94.308,5.508,131.913-1.127,19.168-3.385,36.3-6.87,49.072-17.285,3.039-2.5,5.919-6.675,3.941-10.065-1.337-2.288-4.116-2.894-6.91-2.869a88.659,88.659,0,0,0,18.577-6.62c2.644-1.277,5.583-3.28,5.508-6.209a5.442,5.442,0,0,0-3.7-4.632,14.333,14.333,0,0,0-6.194-.541,84.931,84.931,0,0,0-23.414,5.2C973.766,1335.3,987.7,1325.4,997.336,1311.761Zm-37.455,33.229c0-.03,0-.04.04-.065a.821.821,0,0,0,.125-.05C960,1344.909,959.931,1344.949,959.881,1344.989Z" transform="translate(-15.562 -687.166)" fill="#7b888e"/>
    <path id="Path_60" data-name="Path 60" d="M821.46,1290.621s117.046-55.706,155.227-53.2,36.929,50.073,22.533,70.728-48.2,48.2-172.752,40.058Z" transform="translate(-40.94 -654.57)" fill="#102048"/>
    <path id="Path_61" data-name="Path 61" d="M815.96,1672.84c-6.334,1.793-15.322,2.228-27.69.26,0,0-16.023,4.156-31.8,7.426-10.676,2.213-21.231,4.006-26.624,3.841-.466,0-.926-.035-1.4-.075-10.355-.736-23.4-6.134-30.319-13.845,0,0-.025-.05-.05-.06a19.3,19.3,0,0,1-4.121-6.875c-3.755-11.692,4.181-25.873,47.159-22.958,0,0,14.181-3.33,17.526-13.77s-21.281-60.5-21.281-60.5l35.051-23.785,34.425,38.181s5.218,34.425,5.218,45.692c0,0,14.6,20.865,16.689,30.044C830.08,1662.275,827.151,1669.671,815.96,1672.84Z" transform="translate(23.131 -806.928)" fill="#d3dfff"/>
    <path id="Path_62" data-name="Path 62" d="M544.86,1163.47c4.006-1.547,8.1-2.794,12.238-3.946,2.073-.566,4.156-1.092,6.279-1.5,1.057-.215,2.128-.4,3.215-.546.546-.075,1.087-.13,1.652-.175a12.052,12.052,0,0,1,1.758.03,52.888,52.888,0,0,1,12.623,3.385c4.051,1.5,7.972,3.25,11.842,5.112s7.661,3.881,11.382,6.009,7.371,4.4,10.926,6.81a118.349,118.349,0,0,1,19.7,16.524l-.741.741q-4.717-4.266-9.829-8.057c-3.38-2.554-6.875-4.947-10.455-7.221a216.28,216.28,0,0,0-22.132-12.473c-3.8-1.878-7.656-3.615-11.582-5.167-3.926-1.462-7.942-3.034-11.937-3.575a9.477,9.477,0,0,0-1.437-.085,13.835,13.835,0,0,0-1.5.12c-1.031.11-2.068.26-3.1.441-2.073.361-4.151.781-6.219,1.247-4.131.941-8.252,2.033-12.3,3.285Z" transform="translate(97.158 -614.601)" fill="#1f3c88"/>
    <path id="Path_63" data-name="Path 63" d="M585.232,1470.039c14.081-.941,27.921.065,37.97-3.445,10.746-3.755,38.807-1.252,38.807-1.252l-15.418-22.222L584,1458.773Z" transform="translate(77.616 -757.311)" fill="#b35341"/>
    <path id="Path_64" data-name="Path 64" d="M577.372,1303.787c-14.4-23.159-14.4-68.85,3.755-89.506,20.745-23.6,65.1-32.547,88.254-5.007s65.721,128.312,74.484,196.537c0,0-46.943-15.648-78.865,23.159,0,0-41.936-95.765-50.7-130.816l-23.785,18.777Z" transform="translate(86.102 -632.058)" fill="#1f3c88"/>
    <path id="Path_65" data-name="Path 65" d="M556.195,1403.307s-6.259-2.293-15.022,3.545c0,0-68.435-1.457-83.662,13.98s-3.55,36.093,18.777,38.391c18.732,1.923,55.08-12.608,66.312-17.33a22.1,22.1,0,0,1,7.16-1.7l18.527-1.212Z" transform="translate(144.208 -737.212)" fill="#d3dfff"/>
    <path id="Path_66" data-name="Path 66" d="M696.392,758.064S691.8,742.852,681.7,746.652s-4.717,23.6,15.212,29.112Z" transform="translate(31.321 -409.282)" fill="#f9b384"/>
    <path id="Path_67" data-name="Path 67" d="M693.961,934.315A72.64,72.64,0,0,0,709.889,943a46.919,46.919,0,0,0,17.526,3.3,38.756,38.756,0,0,0,17.14-4.256l2-1c.656-.36,1.257-.816,1.888-1.217a29.542,29.542,0,0,0,3.65-2.639l1.758-1.427.881-.716a10.052,10.052,0,0,0,.816-.791q1.6-1.607,3.25-3.195l.751.631q-1.5,1.783-3,3.55c-.255.29-.5.6-.771.876l-.846.8-1.713,1.622a30.882,30.882,0,0,1-3.665,2.924c-.641.456-1.252.956-1.918,1.367L745.581,944a37.67,37.67,0,0,1-18.141,4.807,46.368,46.368,0,0,1-18.342-3.826,60.259,60.259,0,0,1-15.738-9.874Z" transform="translate(23.016 -501.655)" fill="#1f3c88"/>
    <path id="Path_68" data-name="Path 68" d="M639.781,1323.94l5.423,18.978c1.848,6.314,3.57,12.658,5.508,18.943s3.771,12.588,5.748,18.847c1,3.13,1.968,6.269,3.054,9.364.5,1.552,1,3.13,1.567,4.672s1.107,3.089,1.637,4.647l-.906.38q-2.1-4.507-3.941-9.093c-1.232-3.069-2.353-6.174-3.505-9.274-2.223-6.219-4.191-12.518-6.054-18.843s-3.59-12.693-5.157-19.1-3.085-12.819-4.336-19.3Z" transform="translate(50.246 -697.808)" fill="#102048"/>
    <path id="Path_69" data-name="Path 69" d="M867.7,1774.412c-6.334,1.793-15.322,2.228-27.69.26,0,0-26.5,6.79-43.243,9.449,17.215-3.445,42.252-24.726,39.433-38.181C860.929,1754.077,867.653,1766.44,867.7,1774.412Z" transform="translate(-28.613 -908.5)" fill="#1f3c88" opacity="0.1"/>
    <path id="Path_70" data-name="Path 70" d="M752.338,1799.6a25.009,25.009,0,0,1-12.944,7.937,35.249,35.249,0,0,1-8.012,1.162c-10.355-.736-23.4-6.134-30.319-13.845,0,0-.025-.05-.05-.06a29.162,29.162,0,0,1-2-3.119,50.572,50.572,0,0,0,12.018,8.377,48.087,48.087,0,0,0,6.65,2.7c1.112.426,2.278.676,3.43,1a30.356,30.356,0,0,0,3.505.7C733.921,1806.031,743.851,1805.055,752.338,1799.6Z" transform="translate(20.195 -931.331)" fill="#1f3c88" opacity="0.4"/>
    <path id="Path_71" data-name="Path 71" d="M696.2,764.935a10.32,10.32,0,0,0-1.632-3.806,11.581,11.581,0,0,0-2.759-3,3.077,3.077,0,0,0-3.2-.591,7.823,7.823,0,0,0-2.549,3l-.691-.24a6.222,6.222,0,0,1,2.4-4.2,3.736,3.736,0,0,1,2.724-.561,5.888,5.888,0,0,1,2.4,1.047,10.418,10.418,0,0,1,3.059,3.7,8.011,8.011,0,0,1,1,4.622Z" transform="translate(27.005 -413.994)" fill="#e28b6d"/>
    <path id="Path_72" data-name="Path 72" d="M820.163,769.068c-.441,2.158-2.068,3.65-3.635,3.335s-2.479-2.328-2.038-4.507,2.063-3.65,3.63-3.33S820.6,766.91,820.163,769.068Z" transform="translate(-37.405 -418.508)" fill="#102048"/>
    <ellipse id="Ellipse_9" data-name="Ellipse 9" cx="3.991" cy="2.894" rx="3.991" ry="2.894" transform="translate(752 352.61) rotate(-80.74)" fill="#102048"/>
    <path id="Path_73" data-name="Path 73" d="M794.854,777.455c.15,1.778.22,3.545.24,5.278a3.155,3.155,0,0,0,.931,1.828,19.367,19.367,0,0,1,1.818,2.093,4.291,4.291,0,0,1,.651,1.5,5.371,5.371,0,0,1,.105,1.592,5.309,5.309,0,0,1-1.152,2.914,4.042,4.042,0,0,1-1.287,1,3.681,3.681,0,0,1-1.6.336,5.159,5.159,0,0,1-2.754-1l.346-.646a4.971,4.971,0,0,0,2.338.33,2.288,2.288,0,0,0,1.647-1.062,3.852,3.852,0,0,0,.14-4.006,23.337,23.337,0,0,0-1.632-1.963,4.552,4.552,0,0,1-1.157-2.949c.135-1.818.356-3.6.631-5.373Z" transform="translate(-26.137 -424.902)" fill="#e28b6d"/>
    <path id="Path_74" data-name="Path 74" d="M757.59,753.4a11.657,11.657,0,0,1,3.505-2.414,9.3,9.3,0,0,1,4.356-.836,7.911,7.911,0,0,1,4.216,1.547,10.045,10.045,0,0,1,2.814,3.26l-.581.451a20.031,20.031,0,0,0-3.09-2.333,8.157,8.157,0,0,0-3.455-1.067c-2.428-.185-4.9.776-7.311,1.973Z" transform="translate(-9.052 -411.325)" fill="#102048"/>
    <path id="Path_75" data-name="Path 75" d="M808.46,757.037a5.353,5.353,0,0,1,2.739-3,8.343,8.343,0,0,1,4.006-.9,8.2,8.2,0,0,1,3.951,1.087,6.4,6.4,0,0,1,2.7,3l-.616.4a8.818,8.818,0,0,0-6.089-2.6,7.331,7.331,0,0,0-6.009,2.353Z" transform="translate(-34.45 -412.822)" fill="#102048"/>
    <path id="Path_76" data-name="Path 76" d="M774.33,819.63l16.6,1.187S781.676,833.1,774.33,819.63Z" transform="translate(-17.41 -446.022)" fill="#fff"/>
    <path id="Path_77" data-name="Path 77" d="M827.531,784.91a86.714,86.714,0,0,1-5.383,18.162,9.589,9.589,0,0,1,4.116-18.252,8.209,8.209,0,0,1,1.267.09Z" transform="translate(-38.549 -428.642)" fill="#ee6f57" opacity="0.4"/>
    <circle id="Ellipse_10" data-name="Ellipse 10" cx="9.599" cy="9.599" r="9.599" transform="translate(734.154 358.439) rotate(-22.78)" fill="#ee6f57" opacity="0.4"/>
    <g transform="matrix(1, 0, 0, 1, 460.79, 103.41)" filter="url(#Path_78)">
      <path id="Path_78-2" data-name="Path 78" d="M370.219,652.278a65.711,65.711,0,1,0-24.961,17.22l35.281,14.4Z" transform="translate(-219.27 -411.09)" fill="#fff" stroke="#b6bcd5" stroke-miterlimit="10" stroke-width="3.5"/>
    </g>
    <circle id="Ellipse_11" data-name="Ellipse 11" cx="7.02" cy="7.02" r="7.02" transform="translate(526.584 295.129)" fill="#b8c6d9"/>
    <circle id="Ellipse_12" data-name="Ellipse 12" cx="7.02" cy="7.02" r="7.02" transform="translate(555.932 295.129)" fill="#b8c6d9"/>
    <circle id="Ellipse_13" data-name="Ellipse 13" cx="7.02" cy="7.02" r="7.02" transform="translate(585.28 295.129)" fill="#b8c6d9"/>
    <g transform="matrix(1, 0, 0, 1, 460.79, 103.41)" filter="url(#Path_79)">
      <path id="Path_79-2" data-name="Path 79" d="M677.818,303.48H548.544a13.365,13.365,0,0,0-13.324,13.329V372.28a13.364,13.364,0,0,0,13.324,13.329h11.938l19.4,29.163,5.768-29.163h92.164a13.37,13.37,0,0,0,13.329-13.329V316.809A13.37,13.37,0,0,0,677.818,303.48Z" transform="translate(-358.82 -291.73)" fill="#fff" stroke="#b6bcd5" stroke-miterlimit="10" stroke-width="3.5"/>
    </g>
    <rect id="Rectangle_5" data-name="Rectangle 5" width="110.732" height="6.359" transform="translate(659.789 135.351)" fill="#b8c6d9"/>
    <rect id="Rectangle_6" data-name="Rectangle 6" width="110.732" height="6.359" transform="translate(659.789 152.12)" fill="#b8c6d9"/>
    <rect id="Rectangle_7" data-name="Rectangle 7" width="110.732" height="6.359" transform="translate(659.789 168.895)" fill="#b8c6d9"/>
    <g transform="matrix(1, 0, 0, 1, 460.79, 103.41)" filter="url(#Rectangle_8)">
      <rect id="Rectangle_8-2" data-name="Rectangle 8" width="179" height="109" rx="20" transform="translate(440.4 156.59)" fill="#fff" stroke="#b6bcd5" stroke-miterlimit="10" stroke-width="3.5"/>
    </g>
    <path id="Path_80" data-name="Path 80" d="M40.742-2.153,8.818-16.714v-5.537L40.742-37.529v8.135L17.979-19.653v.205l22.764,9.16Zm40.605-46.86L57.456,8.135H47.817L71.606-49.014ZM121.27-17.158,89.346-2.6v-8.1l22.832-9.126v-.137L89.346-29.736v-8.135L121.27-22.7Z" transform="translate(926.189 336)" fill="#a6b7be"/>
    <g id="Group_1" data-name="Group 1" transform="translate(891.246 509.977)">
      <g id="Group_1-2" data-name="Group 1">
        <path id="Path_135" data-name="Path 135" d="M52.991,23.452a4.427,4.427,0,0,0-.373-2.478,7.362,7.362,0,0,0-1.744-2.325,14.577,14.577,0,0,0-2.962-2.076,25.47,25.47,0,0,0-4.028-1.73,35.644,35.644,0,0,0,1.357-4.714A19.884,19.884,0,0,0,45.7,6.119a8.864,8.864,0,0,0-.478-3.091,3.934,3.934,0,0,0-1.461-1.955A3.249,3.249,0,0,0,43.284.8a3.612,3.612,0,0,0-.528-.192,4.215,4.215,0,0,0-.573-.117,5.069,5.069,0,0,0-.615-.044L41.24,2.818a2.963,2.963,0,0,1,.332.021,2.267,2.267,0,0,1,.3.056,1.848,1.848,0,0,1,.262.089,1.642,1.642,0,0,1,.232.122A2.069,2.069,0,0,1,43.1,4.149a6.032,6.032,0,0,1,.318,1.772,13.741,13.741,0,0,1-.112,2.367,23.213,23.213,0,0,1-.549,2.827q-.094.371-.2.751t-.227.767q-.119.387-.25.78t-.269.79q-.717-.193-1.471-.364t-1.542-.32q-.788-.148-1.607-.273t-1.666-.224q-.416-.735-.846-1.437t-.873-1.368q-.443-.667-.9-1.3T31.992,7.7c.944-.8,1.863-1.5,2.743-2.113a24.059,24.059,0,0,1,2.51-1.538,13.272,13.272,0,0,1,2.2-.936,5.985,5.985,0,0,1,1.808-.306L41.579.44h0a7.969,7.969,0,0,0-2.3.355,15.406,15.406,0,0,0-2.658,1.083,26.265,26.265,0,0,0-2.925,1.762,39.089,39.089,0,0,0-3.107,2.39A26.917,26.917,0,0,0,28.117,3.6,18.808,18.808,0,0,0,25.65,1.781,12.009,12.009,0,0,0,23.255.64,7.35,7.35,0,0,0,21.009.23L20.7,2.624a5.436,5.436,0,0,1,1.751.346,10.3,10.3,0,0,1,1.974.982A17.272,17.272,0,0,1,26.54,5.535a25.29,25.29,0,0,1,2.185,2.15q-.618.582-1.241,1.2t-1.245,1.281q-.622.66-1.242,1.357t-1.231,1.431q-.887.091-1.754.207t-1.711.259q-.844.142-1.662.309t-1.607.359q-.038-.4-.065-.793t-.044-.781q-.017-.387-.025-.767T16.892,11a22.259,22.259,0,0,1,.2-2.869,14.728,14.728,0,0,1,.527-2.4,7.53,7.53,0,0,1,.8-1.788A3.021,3.021,0,0,1,19.463,2.9a1.8,1.8,0,0,1,.268-.122,2.168,2.168,0,0,1,.3-.084,2.732,2.732,0,0,1,.322-.047q.167-.015.347-.013L21.008.241h0a5.565,5.565,0,0,0-.645.029,5.035,5.035,0,0,0-.621.1,4.733,4.733,0,0,0-.6.181,4.654,4.654,0,0,0-.57.26,5.707,5.707,0,0,0-2.028,1.941,10.811,10.811,0,0,0-1.334,3.115,20.123,20.123,0,0,0-.62,4.064,31.7,31.7,0,0,0,.11,4.784,34.988,34.988,0,0,0-4.632,1.729,21.764,21.764,0,0,0-3.655,2.1,11.2,11.2,0,0,0-2.47,2.369,5.454,5.454,0,0,0-1.082,2.536,4.47,4.47,0,0,0,.453,2.538A7.723,7.723,0,0,0,5.2,28.351a15.475,15.475,0,0,0,3.124,2.081,26.87,26.87,0,0,0,4.181,1.7,34.676,34.676,0,0,0-1.318,4.714,19.068,19.068,0,0,0-.407,3.975,8.419,8.419,0,0,0,.537,3.028,3.826,3.826,0,0,0,1.512,1.878,3.28,3.28,0,0,0,.488.251,3.7,3.7,0,0,0,.537.174,4.385,4.385,0,0,0,.583.1,5.366,5.366,0,0,0,.625.028,8.308,8.308,0,0,0,2.31-.4,15.914,15.914,0,0,0,2.647-1.111A26.823,26.823,0,0,0,22.92,43c1-.694,2.028-1.489,3.071-2.378a25.576,25.576,0,0,0,2.432,2.306,17.8,17.8,0,0,0,2.412,1.692,11.412,11.412,0,0,0,2.323,1.037A7.1,7.1,0,0,0,35.327,46a5.461,5.461,0,0,0,.621-.042,4.981,4.981,0,0,0,.6-.113,4.717,4.717,0,0,0,.575-.185,4.662,4.662,0,0,0,.549-.26,5.718,5.718,0,0,0,1.962-1.889,10.638,10.638,0,0,0,1.311-2.995,19.54,19.54,0,0,0,.642-3.9,30.707,30.707,0,0,0-.048-4.62A33.83,33.83,0,0,0,46,30.284a21.282,21.282,0,0,0,3.517-2.056,11.16,11.16,0,0,0,2.392-2.308A5.522,5.522,0,0,0,52.991,23.452ZM40.917,16.477q-.211.507-.439,1.02t-.472,1.032q-.244.518-.5,1.039t-.527,1.042q-.112-.314-.228-.628t-.238-.629q-.122-.315-.249-.629T38,18.094q-.131-.315-.269-.627t-.279-.619q-.141-.308-.286-.612t-.29-.6q.529.085,1.047.18t1.023.2q.505.105,1,.222T40.917,16.477ZM34.743,27.606q-.369.528-.739,1.042t-.744,1.013q-.373.5-.749.981t-.755.948q-.574.053-1.15.095t-1.154.07q-.578.029-1.158.045t-1.16.019q-.577,0-1.152-.008t-1.147-.034q-.572-.023-1.14-.057t-1.13-.079q-.257-.465-.508-.946t-.5-.978q-.245-.5-.483-1.009t-.469-1.039q-.225-.515-.436-1.035t-.41-1.043q-.2-.524-.385-1.05t-.361-1.057q.309-.53.633-1.059t.661-1.057q.337-.527.686-1.051t.707-1.042q.372-.534.746-1.055t.751-1.025q.377-.5.757-.993t.763-.96q.582-.049,1.165-.086t1.167-.061q.584-.024,1.168-.035t1.168-.009q.58,0,1.157.019t1.149.044q.572.028,1.139.068t1.126.09q.253.471.5.958t.486.987q.24.5.472,1.015t.457,1.042q.219.516.423,1.035t.4,1.04q.191.521.37,1.045t.345,1.048q-.311.525-.634,1.049t-.656,1.046q-.334.521-.678,1.039T34.743,27.606Zm3.452-1.36q.132.523.249,1.045t.219,1.039q.1.518.189,1.03t.16,1.018q-.512.126-1.036.243t-1.058.223q-.535.106-1.079.2t-1.1.179q.227-.3.454-.605t.452-.613q.225-.309.448-.621t.44-.629q.217-.312.429-.627t.419-.629q.207-.314.41-.629T38.2,26.246ZM26.407,37.383q-.3-.371-.606-.764t-.6-.807q-.3-.414-.594-.849t-.586-.89l.689.025q.346.011.7.019t.7.011q.352,0,.708,0t.716-.008q.357-.006.712-.017t.707-.027q.352-.016.7-.037-.4.458-.811.9t-.813.856q-.407.418-.812.815T26.407,37.383Zm-6.787-6.1q-.536-.08-1.062-.171t-1.04-.191q-.515-.1-1.017-.213t-.994-.236q.209-.509.436-1.024t.47-1.037q.243-.521.5-1.045t.527-1.05q.117.316.239.631t.249.63q.127.315.26.63t.273.629q.14.314.283.625t.287.616q.145.306.292.608T19.62,31.287ZM30.125,9.365q.306.385.61.791t.6.832q.3.426.594.873t.584.912l-.69-.033q-.347-.015-.7-.027t-.705-.02q-.354-.007-.712-.01t-.721,0q-.36,0-.718.009t-.714.019q-.356.012-.71.03.409-.463.821-.906t.823-.865q.411-.422.821-.823T30.125,9.365Zm-8.448,6.2q-.23.305-.46.615t-.458.623q-.228.313-.453.63t-.446.638q-.22.317-.434.634T19,19.342q-.209.317-.414.634t-.4.634q-.14-.532-.265-1.063t-.235-1.061q-.11-.529-.2-1.054T17.3,16.389q.525-.122,1.062-.235t1.084-.216q.547-.1,1.1-.2T21.677,15.568ZM10.591,28.8A18.059,18.059,0,0,1,8.253,27.53,11.038,11.038,0,0,1,6.51,26.158a5.325,5.325,0,0,1-1.052-1.389,2.322,2.322,0,0,1-.267-1.317,2.88,2.88,0,0,1,.6-1.32,7.735,7.735,0,0,1,1.4-1.4,15.738,15.738,0,0,1,2.1-1.38,24.259,24.259,0,0,1,2.671-1.273q.355-.147.723-.285t.748-.271q.379-.132.767-.259t.782-.249q.121.781.276,1.578t.341,1.6q.187.808.407,1.627t.473,1.646q-.464.823-.891,1.636t-.818,1.612q-.39.8-.744,1.586t-.67,1.556q-.368-.121-.726-.248t-.7-.26q-.346-.133-.68-.272T10.591,28.8Zm3.628,14.917a2.01,2.01,0,0,1-.764-1,5.732,5.732,0,0,1-.347-1.733,13.132,13.132,0,0,1,.081-2.334,22.41,22.41,0,0,1,.52-2.807q.09-.369.195-.748t.221-.765q.117-.386.244-.779t.264-.79q.734.185,1.5.348t1.569.3q.8.139,1.628.254t1.68.2q.423.721.858,1.407t.881,1.334q.445.648.9,1.257t.917,1.176c-.935.793-1.846,1.5-2.719,2.107a24.552,24.552,0,0,1-2.5,1.547,13.691,13.691,0,0,1-2.2.957,6.233,6.233,0,0,1-1.816.337,3.28,3.28,0,0,1-.33-.02,2.5,2.5,0,0,1-.3-.051,1.927,1.927,0,0,1-.265-.083A1.531,1.531,0,0,1,14.219,43.715Zm25.148-8.1a21.548,21.548,0,0,1-.226,2.767,14.331,14.331,0,0,1-.53,2.308,7.415,7.415,0,0,1-.79,1.725,3.025,3.025,0,0,1-1.006,1.016,1.806,1.806,0,0,1-.259.122,2.158,2.158,0,0,1-.286.086,2.7,2.7,0,0,1-.311.052q-.162.018-.335.019a5.239,5.239,0,0,1-1.693-.295,9.769,9.769,0,0,1-1.914-.9,16.339,16.339,0,0,1-2.066-1.484A24.03,24.03,0,0,1,27.8,38.987q.61-.575,1.224-1.189t1.227-1.264q.613-.651,1.224-1.338t1.214-1.41q.87-.1,1.719-.221t1.672-.27q.823-.147,1.619-.318t1.562-.365q.032.391.055.775t.037.759q.013.376.016.743T39.367,35.618ZM44.2,28.7q-.343.145-.7.282t-.724.269q-.367.131-.743.257t-.758.248q-.108-.761-.248-1.538t-.313-1.569q-.173-.792-.378-1.6t-.443-1.623q.461-.813.887-1.617t.817-1.6q.391-.792.745-1.571t.674-1.544q.357.123.7.252t.682.263q.335.134.659.275t.635.286a17.034,17.034,0,0,1,2.235,1.265A10.4,10.4,0,0,1,49.573,20.8a5.08,5.08,0,0,1,.978,1.364,2.294,2.294,0,0,1,.228,1.287,2.938,2.938,0,0,1-.6,1.287A7.758,7.758,0,0,1,48.808,26.1a15.533,15.533,0,0,1-2.029,1.35A23.736,23.736,0,0,1,44.2,28.7Z" fill="#fff"/>
        <path id="Ellipse_4" data-name="Ellipse 4" d="M5.963.012A4.192,4.192,0,0,1,7.73.394,3.866,3.866,0,0,1,9.073,1.427a4.048,4.048,0,0,1,.79,1.526,4.654,4.654,0,0,1,.111,1.864,5.4,5.4,0,0,1-.619,1.861A5.816,5.816,0,0,1,8.153,8.2,5.614,5.614,0,0,1,6.536,9.223a4.923,4.923,0,0,1-1.863.38,4.2,4.2,0,0,1-1.766-.371A3.867,3.867,0,0,1,1.558,8.209a4.041,4.041,0,0,1-.8-1.523,4.645,4.645,0,0,1-.12-1.869,5.4,5.4,0,0,1,.617-1.872A5.815,5.815,0,0,1,2.463,1.415,5.612,5.612,0,0,1,4.091.386,4.915,4.915,0,0,1,5.963.012Z" transform="translate(22.934 18.636)" fill="#fff"/>
      </g>
    </g>
  </g>
</svg>
